<svg width="20" height="20" viewBox="0 0 20 20" fill="none" xmlns="http://www.w3.org/2000/svg">
<path d="M15.75 6.22222C16.0484 6.22222 16.3345 6.35099 16.5455 6.5802C16.7565 6.80941 16.875 7.12029 16.875 7.44444V13.5556C16.875 13.8797 16.7565 14.1906 16.5455 14.4198C16.3345 14.649 16.0484 14.7778 15.75 14.7778H2.25C1.95163 14.7778 1.66548 14.649 1.4545 14.4198C1.24353 14.1906 1.125 13.8797 1.125 13.5556V7.44444C1.125 7.12029 1.24353 6.80941 1.4545 6.5802C1.66548 6.35099 1.95163 6.22222 2.25 6.22222H15.75ZM2.25 5C1.65326 5 1.08097 5.25754 0.65901 5.71596C0.237053 6.17438 0 6.79614 0 7.44444L0 13.5556C0 14.2039 0.237053 14.8256 0.65901 15.284C1.08097 15.7425 1.65326 16 2.25 16H15.75C16.3467 16 16.919 15.7425 17.341 15.284C17.7629 14.8256 18 14.2039 18 13.5556V7.44444C18 6.79614 17.7629 6.17438 17.341 5.71596C16.919 5.25754 16.3467 5 15.75 5H2.25Z" fill="#CCCCCC"/>
<path d="M10 10.3125C10 10.2296 10.0329 10.1501 10.0915 10.0915C10.1501 10.0329 10.2296 10 10.3125 10H10.9375C11.0204 10 11.0999 10.0329 11.1585 10.0915C11.2171 10.1501 11.25 10.2296 11.25 10.3125V10.9375C11.25 11.0204 11.2171 11.0999 11.1585 11.1585C11.0999 11.2171 11.0204 11.25 10.9375 11.25H10.3125C10.2296 11.25 10.1501 11.2171 10.0915 11.1585C10.0329 11.0999 10 11.0204 10 10.9375V10.3125ZM12.5 10.3125C12.5 10.2296 12.5329 10.1501 12.5915 10.0915C12.6501 10.0329 12.7296 10 12.8125 10H14.6875C14.7704 10 14.8499 10.0329 14.9085 10.0915C14.9671 10.1501 15 10.2296 15 10.3125V10.9375C15 11.0204 14.9671 11.0999 14.9085 11.1585C14.8499 11.2171 14.7704 11.25 14.6875 11.25H12.8125C12.7296 11.25 12.6501 11.2171 12.5915 11.1585C12.5329 11.0999 12.5 11.0204 12.5 10.9375V10.3125ZM13.75 12.8125C13.75 12.7296 13.7829 12.6501 13.8415 12.5915C13.9001 12.5329 13.9796 12.5 14.0625 12.5H14.6875C14.7704 12.5 14.8499 12.5329 14.9085 12.5915C14.9671 12.6501 15 12.7296 15 12.8125V13.4375C15 13.5204 14.9671 13.5999 14.9085 13.6585C14.8499 13.7171 14.7704 13.75 14.6875 13.75H14.0625C13.9796 13.75 13.9001 13.7171 13.8415 13.6585C13.7829 13.5999 13.75 13.5204 13.75 13.4375V12.8125ZM7.5 10.3125C7.5 10.2296 7.53292 10.1501 7.59153 10.0915C7.65013 10.0329 7.72962 10 7.8125 10H8.4375C8.52038 10 8.59987 10.0329 8.65847 10.0915C8.71708 10.1501 8.75 10.2296 8.75 10.3125V10.9375C8.75 11.0204 8.71708 11.0999 8.65847 11.1585C8.59987 11.2171 8.52038 11.25 8.4375 11.25H7.8125C7.72962 11.25 7.65013 11.2171 7.59153 11.1585C7.53292 11.0999 7.5 11.0204 7.5 10.9375V10.3125ZM5 10.3125C5 10.2296 5.03292 10.1501 5.09153 10.0915C5.15013 10.0329 5.22962 10 5.3125 10H5.9375C6.02038 10 6.09987 10.0329 6.15847 10.0915C6.21708 10.1501 6.25 10.2296 6.25 10.3125V10.9375C6.25 11.0204 6.21708 11.0999 6.15847 11.1585C6.09987 11.2171 6.02038 11.25 5.9375 11.25H5.3125C5.22962 11.25 5.15013 11.2171 5.09153 11.1585C5.03292 11.0999 5 11.0204 5 10.9375V10.3125ZM2.5 10.3125C2.5 10.2296 2.53292 10.1501 2.59153 10.0915C2.65013 10.0329 2.72962 10 2.8125 10H3.4375C3.52038 10 3.59987 10.0329 3.65847 10.0915C3.71708 10.1501 3.75 10.2296 3.75 10.3125V10.9375C3.75 11.0204 3.71708 11.0999 3.65847 11.1585C3.59987 11.2171 3.52038 11.25 3.4375 11.25H2.8125C2.72962 11.25 2.65013 11.2171 2.59153 11.1585C2.53292 11.0999 2.5 11.0204 2.5 10.9375V10.3125ZM13.75 7.8125C13.75 7.72962 13.7829 7.65013 13.8415 7.59153C13.9001 7.53292 13.9796 7.5 14.0625 7.5H14.6875C14.7704 7.5 14.8499 7.53292 14.9085 7.59153C14.9671 7.65013 15 7.72962 15 7.8125V8.4375C15 8.52038 14.9671 8.59987 14.9085 8.65847C14.8499 8.71708 14.7704 8.75 14.6875 8.75H14.0625C13.9796 8.75 13.9001 8.71708 13.8415 8.65847C13.7829 8.59987 13.75 8.52038 13.75 8.4375V7.8125ZM11.25 7.8125C11.25 7.72962 11.2829 7.65013 11.3415 7.59153C11.4001 7.53292 11.4796 7.5 11.5625 7.5H12.1875C12.2704 7.5 12.3499 7.53292 12.4085 7.59153C12.4671 7.65013 12.5 7.72962 12.5 7.8125V8.4375C12.5 8.52038 12.4671 8.59987 12.4085 8.65847C12.3499 8.71708 12.2704 8.75 12.1875 8.75H11.5625C11.4796 8.75 11.4001 8.71708 11.3415 8.65847C11.2829 8.59987 11.25 8.52038 11.25 8.4375V7.8125ZM8.75 7.8125C8.75 7.72962 8.78292 7.65013 8.84153 7.59153C8.90013 7.53292 8.97962 7.5 9.0625 7.5H9.6875C9.77038 7.5 9.84987 7.53292 9.90847 7.59153C9.96708 7.65013 10 7.72962 10 7.8125V8.4375C10 8.52038 9.96708 8.59987 9.90847 8.65847C9.84987 8.71708 9.77038 8.75 9.6875 8.75H9.0625C8.97962 8.75 8.90013 8.71708 8.84153 8.65847C8.78292 8.59987 8.75 8.52038 8.75 8.4375V7.8125ZM6.25 7.8125C6.25 7.72962 6.28292 7.65013 6.34153 7.59153C6.40013 7.53292 6.47962 7.5 6.5625 7.5H7.1875C7.27038 7.5 7.34987 7.53292 7.40847 7.59153C7.46708 7.65013 7.5 7.72962 7.5 7.8125V8.4375C7.5 8.52038 7.46708 8.59987 7.40847 8.65847C7.34987 8.71708 7.27038 8.75 7.1875 8.75H6.5625C6.47962 8.75 6.40013 8.71708 6.34153 8.65847C6.28292 8.59987 6.25 8.52038 6.25 8.4375V7.8125ZM2.5 7.8125C2.5 7.72962 2.53292 7.65013 2.59153 7.59153C2.65013 7.53292 2.72962 7.5 2.8125 7.5H4.6875C4.77038 7.5 4.84987 7.53292 4.90847 7.59153C4.96708 7.65013 5 7.72962 5 7.8125V8.4375C5 8.52038 4.96708 8.59987 4.90847 8.65847C4.84987 8.71708 4.77038 8.75 4.6875 8.75H2.8125C2.72962 8.75 2.65013 8.71708 2.59153 8.65847C2.53292 8.59987 2.5 8.52038 2.5 8.4375V7.8125ZM2.5 12.8125C2.5 12.7296 2.53292 12.6501 2.59153 12.5915C2.65013 12.5329 2.72962 12.5 2.8125 12.5H3.4375C3.52038 12.5 3.59987 12.5329 3.65847 12.5915C3.71708 12.6501 3.75 12.7296 3.75 12.8125V13.4375C3.75 13.5204 3.71708 13.5999 3.65847 13.6585C3.59987 13.7171 3.52038 13.75 3.4375 13.75H2.8125C2.72962 13.75 2.65013 13.7171 2.59153 13.6585C2.53292 13.5999 2.5 13.5204 2.5 13.4375V12.8125ZM5 12.8125C5 12.7296 5.03292 12.6501 5.09153 12.5915C5.15013 12.5329 5.22962 12.5 5.3125 12.5H12.1875C12.2704 12.5 12.3499 12.5329 12.4085 12.5915C12.4671 12.6501 12.5 12.7296 12.5 12.8125V13.4375C12.5 13.5204 12.4671 13.5999 12.4085 13.6585C12.3499 13.7171 12.2704 13.75 12.1875 13.75H5.3125C5.22962 13.75 5.15013 13.7171 5.09153 13.6585C5.03292 13.5999 5 13.5204 5 13.4375V12.8125Z" fill="#CCCCCC"/>
</svg>
